<mxfile host="65bd71144e">
    <diagram id="8te7wb21LjJar14m4qgC" name="Page-1">
        <mxGraphModel dx="548" dy="787" grid="1" gridSize="10" guides="1" tooltips="1" connect="1" arrows="1" fold="1" page="1" pageScale="1" pageWidth="850" pageHeight="1100" math="0" shadow="0">
            <root>
                <mxCell id="0"/>
                <mxCell id="1" parent="0"/>
                <mxCell id="2" value="NewsLibs" style="rounded=0;whiteSpace=wrap;html=1;fontSize=30;" parent="1" vertex="1">
                    <mxGeometry x="40" y="40" width="760" height="60" as="geometry"/>
                </mxCell>
                <mxCell id="3" value="" style="rounded=0;whiteSpace=wrap;html=1;fontSize=24;verticalAlign=top;fontColor=#FFFFFF;" parent="1" vertex="1">
                    <mxGeometry x="40" y="120" width="760" height="580" as="geometry"/>
                </mxCell>
                <mxCell id="7" value="verb" style="text;html=1;strokeColor=none;fillColor=none;align=center;verticalAlign=middle;whiteSpace=wrap;rounded=0;labelBackgroundColor=none;fontSize=24;fontColor=#FFFFFF;" parent="1" vertex="1">
                    <mxGeometry x="180" y="190" width="130" height="30" as="geometry"/>
                </mxCell>
                <mxCell id="8" value="" style="rounded=0;whiteSpace=wrap;html=1;labelBackgroundColor=none;fontSize=24;fontColor=#FFFFFF;fillColor=#FFFFFF;" parent="1" vertex="1">
                    <mxGeometry x="320" y="190" width="340" height="30" as="geometry"/>
                </mxCell>
                <mxCell id="9" value="adjective" style="text;html=1;strokeColor=none;fillColor=none;align=center;verticalAlign=middle;whiteSpace=wrap;rounded=0;labelBackgroundColor=none;fontSize=24;fontColor=#FFFFFF;" parent="1" vertex="1">
                    <mxGeometry x="180" y="230" width="130" height="30" as="geometry"/>
                </mxCell>
                <mxCell id="10" value="" style="rounded=0;whiteSpace=wrap;html=1;labelBackgroundColor=none;fontSize=24;fontColor=#FFFFFF;fillColor=#FFFFFF;" parent="1" vertex="1">
                    <mxGeometry x="320" y="230" width="340" height="30" as="geometry"/>
                </mxCell>
                <mxCell id="11" value="pl. noun" style="text;html=1;strokeColor=none;fillColor=none;align=center;verticalAlign=middle;whiteSpace=wrap;rounded=0;labelBackgroundColor=none;fontSize=24;fontColor=#FFFFFF;" parent="1" vertex="1">
                    <mxGeometry x="180" y="270" width="130" height="30" as="geometry"/>
                </mxCell>
                <mxCell id="12" value="" style="rounded=0;whiteSpace=wrap;html=1;labelBackgroundColor=none;fontSize=24;fontColor=#FFFFFF;fillColor=#FFFFFF;" parent="1" vertex="1">
                    <mxGeometry x="320" y="270" width="340" height="30" as="geometry"/>
                </mxCell>
                <mxCell id="13" value="" style="rounded=0;whiteSpace=wrap;html=1;labelBackgroundColor=none;fontSize=24;fontColor=#FFFFFF;fillColor=#FFFFFF;" parent="1" vertex="1">
                    <mxGeometry x="320" y="310" width="340" height="30" as="geometry"/>
                </mxCell>
                <mxCell id="14" value="verb" style="text;html=1;strokeColor=none;fillColor=none;align=center;verticalAlign=middle;whiteSpace=wrap;rounded=0;labelBackgroundColor=none;fontSize=24;fontColor=#FFFFFF;" parent="1" vertex="1">
                    <mxGeometry x="180" y="310" width="130" height="30" as="geometry"/>
                </mxCell>
                <mxCell id="15" value="verb -ing" style="text;html=1;strokeColor=none;fillColor=none;align=center;verticalAlign=middle;whiteSpace=wrap;rounded=0;labelBackgroundColor=none;fontSize=24;fontColor=#FFFFFF;" parent="1" vertex="1">
                    <mxGeometry x="180" y="350" width="130" height="30" as="geometry"/>
                </mxCell>
                <mxCell id="16" value="" style="rounded=0;whiteSpace=wrap;html=1;labelBackgroundColor=none;fontSize=24;fontColor=#FFFFFF;fillColor=#FFFFFF;" parent="1" vertex="1">
                    <mxGeometry x="320" y="350" width="340" height="30" as="geometry"/>
                </mxCell>
                <mxCell id="17" value="noun" style="text;html=1;strokeColor=none;fillColor=none;align=center;verticalAlign=middle;whiteSpace=wrap;rounded=0;labelBackgroundColor=none;fontSize=24;fontColor=#FFFFFF;" parent="1" vertex="1">
                    <mxGeometry x="180" y="390" width="130" height="30" as="geometry"/>
                </mxCell>
                <mxCell id="18" value="" style="rounded=0;whiteSpace=wrap;html=1;labelBackgroundColor=none;fontSize=24;fontColor=#FFFFFF;fillColor=#FFFFFF;" parent="1" vertex="1">
                    <mxGeometry x="320" y="390" width="340" height="30" as="geometry"/>
                </mxCell>
                <mxCell id="19" value="noun" style="text;html=1;strokeColor=none;fillColor=none;align=center;verticalAlign=middle;whiteSpace=wrap;rounded=0;labelBackgroundColor=none;fontSize=24;fontColor=#FFFFFF;" parent="1" vertex="1">
                    <mxGeometry x="180" y="430" width="130" height="30" as="geometry"/>
                </mxCell>
                <mxCell id="20" value="" style="rounded=0;whiteSpace=wrap;html=1;labelBackgroundColor=none;fontSize=24;fontColor=#FFFFFF;fillColor=#FFFFFF;" parent="1" vertex="1">
                    <mxGeometry x="320" y="430" width="340" height="30" as="geometry"/>
                </mxCell>
                <mxCell id="21" value="" style="rounded=0;whiteSpace=wrap;html=1;labelBackgroundColor=none;fontSize=24;fontColor=#FFFFFF;fillColor=#FFFFFF;" parent="1" vertex="1">
                    <mxGeometry x="320" y="470" width="340" height="30" as="geometry"/>
                </mxCell>
                <mxCell id="22" value="verb" style="text;html=1;strokeColor=none;fillColor=none;align=center;verticalAlign=middle;whiteSpace=wrap;rounded=0;labelBackgroundColor=none;fontSize=24;fontColor=#FFFFFF;" parent="1" vertex="1">
                    <mxGeometry x="180" y="470" width="130" height="30" as="geometry"/>
                </mxCell>
                <mxCell id="23" value="adjective" style="text;html=1;strokeColor=none;fillColor=none;align=center;verticalAlign=middle;whiteSpace=wrap;rounded=0;labelBackgroundColor=none;fontSize=24;fontColor=#FFFFFF;" parent="1" vertex="1">
                    <mxGeometry x="180" y="510" width="130" height="30" as="geometry"/>
                </mxCell>
                <mxCell id="24" value="" style="rounded=0;whiteSpace=wrap;html=1;labelBackgroundColor=none;fontSize=24;fontColor=#FFFFFF;fillColor=#FFFFFF;" parent="1" vertex="1">
                    <mxGeometry x="320" y="510" width="340" height="30" as="geometry"/>
                </mxCell>
                <mxCell id="25" value="noun" style="text;html=1;strokeColor=none;fillColor=none;align=center;verticalAlign=middle;whiteSpace=wrap;rounded=0;labelBackgroundColor=none;fontSize=24;fontColor=#FFFFFF;" parent="1" vertex="1">
                    <mxGeometry x="180" y="550" width="130" height="30" as="geometry"/>
                </mxCell>
                <mxCell id="26" value="" style="rounded=0;whiteSpace=wrap;html=1;labelBackgroundColor=none;fontSize=24;fontColor=#FFFFFF;fillColor=#FFFFFF;" parent="1" vertex="1">
                    <mxGeometry x="320" y="550" width="340" height="30" as="geometry"/>
                </mxCell>
                <mxCell id="29" value="GENERATE LIB, SEÑOR" style="rounded=1;whiteSpace=wrap;html=1;labelBackgroundColor=none;fontSize=24;fontColor=#ffffff;fillColor=#d80073;strokeColor=#A50040;" parent="1" vertex="1">
                    <mxGeometry x="250" y="610" width="340" height="60" as="geometry"/>
                </mxCell>
                <mxCell id="30" value="&amp;lt;--- Go Back" style="text;html=1;strokeColor=none;fillColor=none;align=center;verticalAlign=middle;whiteSpace=wrap;rounded=0;labelBackgroundColor=default;fontColor=#00BBFF;" vertex="1" parent="1">
                    <mxGeometry x="50" y="55" width="140" height="30" as="geometry"/>
                </mxCell>
                <mxCell id="31" value="Enter your words, señor." style="text;html=1;strokeColor=none;fillColor=none;align=center;verticalAlign=middle;whiteSpace=wrap;rounded=0;fontSize=20;" vertex="1" parent="1">
                    <mxGeometry x="260" y="140" width="330" height="30" as="geometry"/>
                </mxCell>
                <mxCell id="32" value="New Puzzle ---&amp;gt;" style="text;html=1;strokeColor=none;fillColor=none;align=center;verticalAlign=middle;whiteSpace=wrap;rounded=0;labelBackgroundColor=default;fontColor=#00BBFF;" vertex="1" parent="1">
                    <mxGeometry x="640" y="55" width="140" height="30" as="geometry"/>
                </mxCell>
                <mxCell id="33" value="&lt;font color=&quot;#ffffff&quot;&gt;Copyright 2023 Group 9&lt;/font&gt;" style="rounded=0;whiteSpace=wrap;html=1;labelBackgroundColor=default;fontColor=#F0071E;" vertex="1" parent="1">
                    <mxGeometry x="40" y="720" width="760" height="30" as="geometry"/>
                </mxCell>
            </root>
        </mxGraphModel>
    </diagram>
</mxfile>